GIL03_free4_ik
nRows=3
nColumns=375

# SIMM Motion File Header:
name GIL03_free4_ik
datacolumns 375
datarows 3
otherdata 1
range 0.35833000 0.37500000
endheader
time	pelvis_tx	pelvis_ty	pelvis_tz	pelvis_tilt	pelvis_list	pelvis_rotation	hip_flexion_r	hip_adduction_r	hip_rotation_r	knee_angle_r	ankle_angle_r	hip_flexion_l	hip_adduction_l	hip_rotation_l	knee_angle_l	ankle_angle_l	lumbar_extension	lumbar_bending	lumbar_rotation	subtalar_angle_r	mtp_angle_r	subtalar_angle_l	mtp_angle_l	asis_r_px	asis_r_py	asis_r_pz	asis_l_px	asis_l_py	asis_l_pz	midasis_px	midasis_py	midasis_pz	psis_r_px	psis_r_py	psis_r_pz	psis_l_px	psis_l_py	psis_l_pz	hip_r_px	hip_r_py	hip_r_pz	hip_l_px	hip_l_py	hip_l_pz	midhip_px	midhip_py	midhip_pz	epicondLat_r_px	epicondLat_r_py	epicondLat_r_pz	epicondMed_r_px	epicondMed_r_py	epicondMed_r_pz	thighwand_r_px	thighwand_r_py	thighwand_r_pz	upperleg1_r_px	upperleg1_r_py	upperleg1_r_pz	upperleg2_r_px	upperleg2_r_py	upperleg2_r_pz	malleolusLat_r_px	malleolusLat_r_py	malleolusLat_r_pz	malleolusMedv_r_px	malleolusMedv_r_py	malleolusMedv_r_pz	shankwand_r_px	shankwand_r_py	shankwand_r_pz	lowerleg1_r_px	lowerleg1_r_py	lowerleg1_r_pz	knee_r_px	knee_r_py	knee_r_pz	ankle_r_px	ankle_r_py	ankle_r_pz	toe_r_px	toe_r_py	toe_r_pz	epicondLat_l_px	epicondLat_l_py	epicondLat_l_pz	epicondMed_l_px	epicondMed_l_py	epicondMed_l_pz	thighwand_l_px	thighwand_l_py	thighwand_l_pz	upperleg1_l_px	upperleg1_l_py	upperleg1_l_pz	upperleg2_l_px	upperleg2_l_py	upperleg2_l_pz	malleolusLat_l_px	malleolusLat_l_py	malleolusLat_l_pz	malleolusMedv_l_px	malleolusMedv_l_py	malleolusMedv_l_pz	shankwand_l_px	shankwand_l_py	shankwand_l_pz	lowerleg1_l_px	lowerleg1_l_py	lowerleg1_l_pz	knee_l_px	knee_l_py	knee_l_pz	ankle_l_px	ankle_l_py	ankle_l_pz	toe_l_px	toe_l_py	toe_l_pz	subclavicle_r_px	subclavicle_r_py	subclavicle_r_pz	subclavicle_l_px	subclavicle_l_py	subclavicle_l_pz	neck_px	neck_py	neck_pz	sternalnotch_px	sternalnotch_py	sternalnotch_pz	xyphoidprocess_px	xyphoidprocess_py	xyphoidprocess_pz	midhip_tx	midhip_ty	midhip_tz	hip_r_tx	hip_r_ty	hip_r_tz	hip_l_tx	hip_l_ty	hip_l_tz	knee_r_tx	knee_r_ty	knee_r_tz	knee_l_tx	knee_l_ty	knee_l_tz	ankle_r_tx	ankle_r_ty	ankle_r_tz	ankle_l_tx	ankle_l_ty	ankle_l_tz	midasis_tx	midasis_ty	midasis_tz	asis_r_tx	asis_r_ty	asis_r_tz	asis_l_tx	asis_l_ty	asis_l_tz	psis_r_tx	psis_r_ty	psis_r_tz	psis_l_tx	psis_l_ty	psis_l_tz	epicondLat_r_tx	epicondLat_r_ty	epicondLat_r_tz	epicondLat_l_tx	epicondLat_l_ty	epicondLat_l_tz	epicondMed_r_tx	epicondMed_r_ty	epicondMed_r_tz	epicondMed_l_tx	epicondMed_l_ty	epicondMed_l_tz	malleolusLat_r_tx	malleolusLat_r_ty	malleolusLat_r_tz	malleolusLat_l_tx	malleolusLat_l_ty	malleolusLat_l_tz	malleolusMedv_r_tx	malleolusMedv_r_ty	malleolusMedv_r_tz	malleolusMedv_l_tx	malleolusMedv_l_ty	malleolusMedv_l_tz	neck_tx	neck_ty	neck_tz	subclavicle_r_tx	subclavicle_r_ty	subclavicle_r_tz	subclavicle_l_tx	subclavicle_l_ty	subclavicle_l_tz	sternalnotch_tx	sternalnotch_ty	sternalnotch_tz	xyphoidprocess_tx	xyphoidprocess_ty	xyphoidprocess_tz	thighwand_r_tx	thighwand_r_ty	thighwand_r_tz	thighwand_l_tx	thighwand_l_ty	thighwand_l_tz	upperleg1_r_tx	upperleg1_r_ty	upperleg1_r_tz	upperleg1_l_tx	upperleg1_l_ty	upperleg1_l_tz	upperleg2_r_tx	upperleg2_r_ty	upperleg2_r_tz	upperleg2_l_tx	upperleg2_l_ty	upperleg2_l_tz	shankwand_r_tx	shankwand_r_ty	shankwand_r_tz	shankwand_l_tx	shankwand_l_ty	shankwand_l_tz	lowerleg1_r_tx	lowerleg1_r_ty	lowerleg1_r_tz	lowerleg1_l_tx	lowerleg1_l_ty	lowerleg1_l_tz	toe_r_tx	toe_r_ty	toe_r_tz	toe_l_tx	toe_l_ty	toe_l_tz	ground_force_vx	ground_force_vy	ground_force_vz	ground_force_px	ground_force_py	ground_force_pz	ground_force_vx	ground_force_vy	ground_force_vz	ground_force_px	ground_force_py	ground_force_pz	ground_torque_x	ground_torque_y	ground_torque_z	ground_torque_x	ground_torque_y	ground_torque_z	ground_marker_px	ground_marker_py	ground_marker_pz	ground_marker_px	ground_marker_py	ground_marker_pz	ground_marker_px	ground_marker_py	ground_marker_pz	ground_marker_px	ground_marker_py	ground_marker_pz	ground_marker_px	ground_marker_py	ground_marker_pz	ground_marker_px	ground_marker_py	ground_marker_pz	ground_marker_px	ground_marker_py	ground_marker_pz	ground_marker_px	ground_marker_py	ground_marker_pz	ground_marker_px	ground_marker_py	ground_marker_pz	ground_marker_px	ground_marker_py	ground_marker_pz	ground_marker_px	ground_marker_py	ground_marker_pz	ground_marker_px	ground_marker_py	ground_marker_pz	ground_marker_px	ground_marker_py	ground_marker_pz	ground_marker_px	ground_marker_py	ground_marker_pz	ground_marker_px	ground_marker_py	ground_marker_pz	ground_marker_px	ground_marker_py	ground_marker_pz	ground_marker_px	ground_marker_py	ground_marker_pz	ground_marker_px	ground_marker_py	ground_marker_pz	ground_marker_px	ground_marker_py	ground_marker_pz	ground_marker_px	ground_marker_py	ground_marker_pz	ground_marker_px	ground_marker_py	ground_marker_pz	ground_marker_px	ground_marker_py	ground_marker_pz	ground_marker_px	ground_marker_py	ground_marker_pz	ground_marker_px	ground_marker_py	ground_marker_pz	ground_marker_px	ground_marker_py	ground_marker_pz	ground_marker_px	ground_marker_py	ground_marker_pz	ground_marker_px	ground_marker_py	ground_marker_pz	ground_marker_px	ground_marker_py	ground_marker_pz	ground_marker_px	ground_marker_py	ground_marker_pz	ground_marker_px	ground_marker_py	ground_marker_pz	ground_marker_px	ground_marker_py	ground_marker_pz	ground_marker_px	ground_marker_py	ground_marker_pz	ground_marker_px	ground_marker_py	ground_marker_pz	ground_marker_px	ground_marker_py	ground_marker_pz	ground_marker_px	ground_marker_py	ground_marker_pz	ground_marker_px	ground_marker_py	ground_marker_pz	ground_marker_px	ground_marker_py	ground_marker_pz
      0.35833000	      0.27844790	      0.88526708	     -0.21686824	      3.14403070	     -3.79141718	      0.95511111	     -2.67501123	      7.06062051	      5.00556477	    -13.32938730	     13.83261832	     24.23425248	     -8.41060819	      7.76743402	    -42.22257555	      8.98713118	    -17.46671379	      4.88888099	      8.48724387	      0.00000000	      0.00000000	      0.00000000	      0.00000000	      0.32833926	      0.89749038	     -0.12532298	      0.30818347	      0.87702845	     -0.32497626	      0.28946415	      0.88586001	     -0.21705176	      0.16793318	      0.93444269	     -0.19003676	      0.16211248	      0.92957458	     -0.24441627	      0.22652343	      0.83477463	     -0.14684156	      0.22481007	      0.82596553	     -0.27815188	      0.22566675	      0.83037008	     -0.21249672	      0.26295742	      0.44134150	     -0.10975856	      0.22529566	      0.44055664	     -0.21261455	      0.38793321	      0.60954024	     -0.18528302	      0.32407207	      0.66018360	     -0.12529632	      0.31238356	      0.57494086	     -0.12544017	      0.12578709	      0.05630473	     -0.14070847	      0.15529677	      0.06658581	     -0.20721226	      0.15879404	      0.17068577	     -0.06352569	      0.16153650	      0.17876171	     -0.10500215	      0.22664089	      0.46039848	     -0.16772457	      0.13759453	      0.07158078	     -0.18033771	      0.25163634	      0.03381828	     -0.13741082	      0.41702386	      0.49865130	     -0.37276203	      0.40472224	      0.46730360	     -0.26876766	      0.45526524	      0.68959028	     -0.27710259	      0.37469898	      0.70499318	     -0.33624699	      0.41227892	      0.62536096	     -0.33880169	      0.28440485	      0.10154403	     -0.40933050	      0.31213947	      0.09776315	     -0.34740918	      0.27206123	      0.23227056	     -0.45031757	      0.29097621	      0.22811362	     -0.41162747	      0.39850660	      0.49082994	     -0.31320960	      0.29348533	      0.10938276	     -0.36551761	      0.40522804	      0.06107871	     -0.42238252	      0.31807380	      1.26244288	     -0.16304370	      0.30560090	      1.26496598	     -0.27151522	      0.21403637	      1.32251271	     -0.20028416	      0.29652163	      1.27360479	     -0.22054083	      0.36529909	      1.11288013	     -0.23093323	      0.22991400	      0.83572900	     -0.21251400	      0.23654300	      0.82287500	     -0.15257400	      0.22349400	      0.81408900	     -0.26898700	      0.23591800	      0.45008900	     -0.17279300	      0.39363200	      0.48173800	     -0.31072500	      0.14234300	      0.06386400	     -0.18972300	      0.28873200	      0.10007600	     -0.35581300	      0.28791800	      0.89968800	     -0.21738600	      0.29062900	      0.90586200	     -0.11773200	      0.28520700	      0.89351400	     -0.31704100	      0.13080000	      0.92723300	     -0.19131800	      0.12978700	      0.92170300	     -0.24628000	      0.24800900	      0.44716300	     -0.11921800	      0.40317800	      0.49320800	     -0.36314200	      0.22642100	      0.44887600	     -0.21576900	      0.39442400	      0.46035800	     -0.26594600	      0.13590400	      0.06376000	     -0.15176600	      0.29044500	      0.10412400	     -0.39406100	      0.16255600	      0.07383300	     -0.21948200	      0.31314600	      0.10333300	     -0.33157300	      0.22094200	      1.33938300	     -0.19953600	      0.31941300	      1.25487700	     -0.16541700	      0.30194900	      1.25571800	     -0.27189600	      0.29646600	      1.26781100	     -0.22155900	      0.33117600	      1.09601600	     -0.22746200	      0.37523700	      0.62752000	     -0.17254300	      0.44196300	      0.68253100	     -0.26494000	      0.30351600	      0.67185200	     -0.11666100	      0.36703500	      0.69901400	     -0.32768600	      0.29759000	      0.58659800	     -0.11987800	      0.40487600	      0.62093300	     -0.32988300	      0.16456500	      0.17553400	     -0.07602100	      0.28368300	      0.23253700	     -0.44086200	      0.16720400	      0.18499400	     -0.11730100	      0.29825500	      0.22932300	     -0.40086500	      0.25391400	      0.04038600	     -0.14990700	      0.40517300	      0.06401600	     -0.38898900	     20.62087383	    365.08138884	    -10.43015152	      0.17580170	      0.00000000	     -0.17375674	      0.00000000	      0.00000000	      0.00000000	      0.65435077	      0.00000000	     -0.28610803	      0.00000000	      1.42368225	      0.00000000	      0.00000000	      0.00000000	      0.00000000	      0.22991350	      0.83572906	     -0.21251412	      0.23654257	      0.82287484	     -0.15257372	      0.22349396	      0.81408858	     -0.26898748	      0.23591816	      0.45008874	     -0.17279251	      0.39363188	      0.48173788	     -0.31072500	      0.14234348	      0.06386360	     -0.18972330	      0.28873184	      0.10007642	     -0.35581279	      0.28791785	      0.89968801	     -0.21738642	      0.29062852	      0.90586179	     -0.11773186	      0.28520715	      0.89351416	     -0.31704098	      0.13080005	      0.92723262	     -0.19131805	      0.12978676	      0.92170280	     -0.24627973	      0.24800938	      0.44716278	     -0.11921787	      0.40317848	      0.49320769	     -0.36314213	      0.22642094	      0.44887602	     -0.21576944	      0.39442450	      0.46035826	     -0.26594576	      0.13590404	      0.06375982	     -0.15176578	      0.29044539	      0.10412394	     -0.39406106	      0.16255599	      0.07383277	     -0.21948208	      0.31314585	      0.10333347	     -0.33157328	      0.22094205	      1.33938253	     -0.19953640	      0.31941298	      1.25487685	     -0.16541731	      0.30194899	      1.25571752	     -0.27189565	      0.29646644	      1.26781094	     -0.22155875	      0.33117583	      1.09601557	     -0.22746186	      0.37523746	      0.62751973	     -0.17254278	      0.44196272	      0.68253118	     -0.26494017	      0.30351648	      0.67185229	     -0.11666060	      0.36703461	      0.69901448	     -0.32768586	      0.29759037	      0.58659750	     -0.11987763	      0.40487596	      0.62093288	     -0.32988259	      0.16456528	      0.17553402	     -0.07602097	      0.28368270	      0.23253675	     -0.44086197	      0.16720390	      0.18499352	     -0.11730072	      0.29825532	      0.22932313	     -0.40086508	      0.25391439	      0.04038561	     -0.14990728	      0.40517333	      0.06401616	     -0.38898864
      0.36667000	      0.28840830	      0.88413004	     -0.21705790	      3.00187640	     -3.83987838	      1.04101879	     -3.43291109	      7.10437947	      4.89570294	    -12.95676074	     14.29223840	     24.82995705	     -8.17409525	      8.20546260	    -39.67458717	      8.32382804	    -17.30265545	      4.99978218	      8.64603029	      0.00000000	      0.00000000	      0.00000000	      0.00000000	      0.33846370	      0.89630899	     -0.12559631	      0.31796576	      0.87571490	     -0.32520116	      0.29942578	      0.88469436	     -0.21725791	      0.17805985	      0.93361552	     -0.19011207	      0.17214778	      0.92871226	     -0.24447857	      0.23645531	      0.83383645	     -0.14690938	      0.23452886	      0.82491062	     -0.27820886	      0.23549208	      0.82937353	     -0.21255912	      0.26658076	      0.43988720	     -0.10964464	      0.22905067	      0.43966428	     -0.21255149	      0.39431650	      0.60605123	     -0.18505554	      0.33118720	      0.65772469	     -0.12517278	      0.31814543	      0.57267846	     -0.12530388	      0.12586865	      0.05639927	     -0.14094052	      0.15558858	      0.06642111	     -0.20739024	      0.15982020	      0.17044100	     -0.06366544	      0.16271020	      0.17850296	     -0.10513460	      0.23057677	      0.45953144	     -0.16765719	      0.13788797	      0.07157494	     -0.18054462	      0.25172613	      0.03363390	     -0.13723632	      0.42973076	      0.49891636	     -0.37124535	      0.41697904	      0.46757628	     -0.26730292	      0.46595777	      0.69021707	     -0.27552458	      0.38566931	      0.70497849	     -0.33520787	      0.42384313	      0.62561953	     -0.33744002	      0.31758861	      0.09643964	     -0.40803144	      0.34472796	      0.09424704	     -0.34577068	      0.29905070	      0.22625411	     -0.44957995	      0.31768362	      0.22317336	     -0.41065306	      0.41038969	      0.49131682	     -0.31179256	      0.32572304	      0.10484685	     -0.36413816	      0.43999467	      0.06081889	     -0.41942708	      0.32829788	      1.26146185	     -0.16310787	      0.31540696	      1.26416253	     -0.27152623	      0.22409829	      1.32155925	     -0.19984710	      0.30652103	      1.27271289	     -0.22050288	      0.37531064	      1.11202885	     -0.23142924	      0.23952700	      0.83501600	     -0.21287900	      0.24643500	      0.82207500	     -0.15255800	      0.23314100	      0.81329100	     -0.26894400	      0.23987100	      0.44936200	     -0.17283300	      0.40590300	      0.48228600	     -0.30966400	      0.14263600	      0.06386400	     -0.18985900	      0.32114200	      0.09500500	     -0.35425000	      0.29788400	      0.89873800	     -0.21749000	      0.30080400	      0.90493500	     -0.11778500	      0.29496500	      0.89254100	     -0.31719500	      0.14063000	      0.92670300	     -0.19160000	      0.13956200	      0.92115500	     -0.24655700	      0.25186800	      0.44623600	     -0.11924800	      0.41567500	      0.49382700	     -0.36202400	      0.23042200	      0.44826400	     -0.21552400	      0.40506500	      0.46066500	     -0.26489700	      0.13610600	      0.06383500	     -0.15191700	      0.32272500	      0.09906200	     -0.39250300	      0.16286900	      0.07370000	     -0.21956400	      0.34554300	      0.09965400	     -0.32984900	      0.23105600	      1.33846900	     -0.19908600	      0.32963200	      1.25376000	     -0.16555400	      0.31163900	      1.25472100	     -0.27198500	      0.30644900	      1.26682500	     -0.22155000	      0.34088300	      1.09494100	     -0.22782000	      0.38181900	      0.62470200	     -0.17241700	      0.45196600	      0.68328300	     -0.26369600	      0.31079000	      0.67020900	     -0.11671600	      0.37711400	      0.69920100	     -0.32698600	      0.30356300	      0.58506100	     -0.11978400	      0.41523700	      0.62116900	     -0.32897800	      0.16566500	      0.17544400	     -0.07607000	      0.30923000	      0.22698700	     -0.43991200	      0.16859700	      0.18478300	     -0.11725700	      0.32407900	      0.22453700	     -0.39985000	      0.25404200	      0.04029300	     -0.14989100	      0.43923300	      0.06354000	     -0.38574600	     20.55007389	    365.58712625	    -12.51014903	      0.18136133	      0.00000000	     -0.17218727	      0.00000000	      0.00000000	      0.00000000	      0.65707935	      0.00000000	     -0.28571606	      0.00000000	      1.41313770	      0.00000000	      0.00000000	      0.00000000	      0.00000000	      0.23952746	      0.83501649	     -0.21287861	      0.24643517	      0.82207501	     -0.15255797	      0.23314065	      0.81329131	     -0.26894408	      0.23987068	      0.44936249	     -0.17283268	      0.40590304	      0.48228559	     -0.30966371	      0.14263555	      0.06386396	     -0.18985887	      0.32114232	      0.09500457	     -0.35424969	      0.29788443	      0.89873773	     -0.21749002	      0.30080387	      0.90493482	     -0.11778512	      0.29496500	      0.89254063	     -0.31719491	      0.14063033	      0.92670310	     -0.19159974	      0.13956185	      0.92115545	     -0.24655738	      0.25186795	      0.44623631	     -0.11924823	      0.41567519	      0.49382716	     -0.36202353	      0.23042217	      0.44826359	     -0.21552403	      0.40506536	      0.46066526	     -0.26489738	      0.13610615	      0.06383510	     -0.15191659	      0.32272547	      0.09906195	     -0.39250258	      0.16286936	      0.07369968	     -0.21956351	      0.34554344	      0.09965416	     -0.32984918	      0.23105641	      1.33846915	     -0.19908571	      0.32963237	      1.25376046	     -0.16555385	      0.31163904	      1.25472105	     -0.27198544	      0.30644873	      1.26682484	     -0.22155024	      0.34088302	      1.09494126	     -0.22782016	      0.38181919	      0.62470227	     -0.17241667	      0.45196587	      0.68328321	     -0.26369604	      0.31079027	      0.67020935	     -0.11671571	      0.37711430	      0.69920069	     -0.32698569	      0.30356285	      0.58506101	     -0.11978430	      0.41523749	      0.62116897	     -0.32897767	      0.16566539	      0.17544414	     -0.07606987	      0.30922997	      0.22698750	     -0.43991244	      0.16859664	      0.18478325	     -0.11725668	      0.32407933	      0.22453675	     -0.39984959	      0.25404182	      0.04029277	     -0.14989075	      0.43923303	      0.06354029	     -0.38574639
      0.37500000	      0.29851816	      0.88290461	     -0.21723064	      2.87443943	     -3.89256009	      1.09103932	     -4.22077120	      7.14983991	      4.73359970	    -12.57363133	     14.74771813	     25.32212072	     -7.96371271	      8.59680787	    -37.05180378	      7.54529198	    -17.13369815	      5.09249425	      8.89887996	      0.00000000	      0.00000000	      0.00000000	      0.00000000	      0.34867656	      0.89505721	     -0.12582198	      0.32796723	      0.87431798	     -0.32538999	      0.30953672	      0.88344358	     -0.21744025	      0.18830519	      0.93266784	     -0.19024186	      0.18233716	      0.92772580	     -0.24459873	      0.24650831	      0.83279729	     -0.14699101	      0.24445332	      0.82374958	     -0.27828020	      0.24548081	      0.82827344	     -0.21263561	      0.27014999	      0.43842930	     -0.10947864	      0.23292497	      0.43876682	     -0.21249593	      0.40077766	      0.60247242	     -0.18457842	      0.33831573	      0.65518676	     -0.12490343	      0.32390100	      0.57036246	     -0.12503883	      0.12593385	      0.05653986	     -0.14132454	      0.15596948	      0.06629182	     -0.20767239	      0.16071194	      0.17023715	     -0.06390959	      0.16381697	      0.17827974	     -0.10536697	      0.23456529	      0.45866189	     -0.16759618	      0.13822926	      0.07160850	     -0.18088473	      0.25178606	      0.03347587	     -0.13700975	      0.44214541	      0.49882139	     -0.36977522	      0.42891905	      0.46750019	     -0.26588643	      0.47664495	      0.69041667	     -0.27400540	      0.39665121	      0.70465403	     -0.33420949	      0.43530224	      0.62551811	     -0.33612597	      0.35066656	      0.09205977	     -0.40640081	      0.37712877	      0.09143733	     -0.34381393	      0.32601185	      0.22063556	     -0.44861622	      0.34430661	      0.21862404	     -0.40945967	      0.42196652	      0.49144420	     -0.31043025	      0.35782941	      0.10099748	     -0.36244309	      0.47435807	      0.06108326	     -0.41612047	      0.33858515	      1.26041421	     -0.16331847	      0.32516112	      1.26329372	     -0.27166751	      0.23416247	      1.32049760	     -0.19944206	      0.31651901	      1.27174875	     -0.22058643	      0.38537280	      1.11113533	     -0.23212953	      0.24929900	      0.83420400	     -0.21334500	      0.25644200	      0.82119600	     -0.15254000	      0.24297700	      0.81239500	     -0.26890600	      0.24386400	      0.44863100	     -0.17285200	      0.41785600	      0.48253200	     -0.30857800	      0.14296600	      0.06385500	     -0.18998900	      0.35345800	      0.09063700	     -0.35245500	      0.30798300	      0.89771400	     -0.21757100	      0.31104700	      0.90394900	     -0.11781200	      0.30491900	      0.89147800	     -0.31732900	      0.15059800	      0.92605200	     -0.19193800	      0.14947800	      0.92049000	     -0.24687400	      0.25567600	      0.44530900	     -0.11923800	      0.42785900	      0.49412500	     -0.36088300	      0.23462200	      0.44763600	     -0.21532100	      0.41481800	      0.46060400	     -0.26339700	      0.13630600	      0.06391300	     -0.15206900	      0.35486700	      0.09469000	     -0.39071600	      0.16322200	      0.07359200	     -0.21964200	      0.37777300	      0.09670200	     -0.32792100	      0.24112100	      1.33745200	     -0.19870500	      0.33984400	      1.25261800	     -0.16581100	      0.32136600	      1.25376400	     -0.27211700	      0.31643800	      1.26577600	     -0.22161900	      0.35074600	      1.09389900	     -0.22837700	      0.38847600	      0.62175100	     -0.17206000	      0.46185200	      0.68356400	     -0.26251200	      0.31805900	      0.66852500	     -0.11659900	      0.38708900	      0.69896600	     -0.32637100	      0.30950600	      0.58341900	     -0.11954200	      0.42523100	      0.62085600	     -0.32798900	      0.16668900	      0.17538800	     -0.07611200	      0.33461600	      0.22174900	     -0.43875700	      0.16977700	      0.18463700	     -0.11722900	      0.34986700	      0.21999400	     -0.39869000	      0.25416400	      0.04020000	     -0.14985000	      0.47293300	      0.06361400	     -0.38276700	     20.31587141	    365.30935228	    -14.67299554	      0.18753784	      0.00000000	     -0.17042351	      0.00000000	      0.00000000	      0.00000000	      0.65983405	      0.00000000	     -0.28542633	      0.00000000	      1.40865088	      0.00000000	      0.00000000	      0.00000000	      0.00000000	      0.24929905	      0.83420426	     -0.21334502	      0.25644201	      0.82119578	     -0.15254040	      0.24297741	      0.81239456	     -0.26890564	      0.24386351	      0.44863075	     -0.17285205	      0.41785616	      0.48253164	     -0.30857784	      0.14296599	      0.06385525	     -0.18998881	      0.35345820	      0.09063745	     -0.35245532	      0.30798298	      0.89771360	     -0.21757054	      0.31104693	      0.90394890	     -0.11781173	      0.30491903	      0.89147830	     -0.31732935	      0.15059809	      0.92605215	     -0.19193789	      0.14947818	      0.92048955	     -0.24687406	      0.25567630	      0.44530898	     -0.11923839	      0.42785910	      0.49412537	     -0.36088252	      0.23462228	      0.44763559	     -0.21532109	      0.41481751	      0.46060377	     -0.26339737	      0.13630591	      0.06391285	     -0.15206927	      0.35486710	      0.09468964	     -0.39071554	      0.16322178	      0.07359187	     -0.21964240	      0.37777272	      0.09670237	     -0.32792136	      0.24112113	      1.33745170	     -0.19870499	      0.33984357	      1.25261760	     -0.16581099	      0.32136604	      1.25376439	     -0.27211738	      0.31643760	      1.26577628	     -0.22161929	      0.35074592	      1.09389889	     -0.22837663	      0.38847566	      0.62175053	     -0.17206001	      0.46185169	      0.68356389	     -0.26251176	      0.31805882	      0.66852450	     -0.11659943	      0.38708860	      0.69896626	     -0.32637137	      0.30950570	      0.58341867	     -0.11954214	      0.42523080	      0.62085640	     -0.32798889	      0.16668886	      0.17538835	     -0.07611153	      0.33461553	      0.22174938	     -0.43875667	      0.16977666	      0.18463673	     -0.11722913	      0.34986725	      0.21999393	     -0.39868999	      0.25416428	      0.04019959	     -0.14985010	      0.47293311	      0.06361356	     -0.38276687
